<svg id="visual" viewBox="0 0 900 100" width="900" height="100" xmlns="http://www.w3.org/2000/svg" xmlns:xlink="http://www.w3.org/1999/xlink" version="1.1"><rect x="0" y="0" width="900" height="100" fill="#fefefe"></rect><path d="M0 47L18.8 48C37.7 49 75.3 51 112.8 55.7C150.3 60.3 187.7 67.7 225.2 67C262.7 66.3 300.3 57.7 337.8 53.5C375.3 49.3 412.7 49.7 450.2 54.2C487.7 58.7 525.3 67.3 562.8 69.2C600.3 71 637.7 66 675.2 56.7C712.7 47.3 750.3 33.7 787.8 34.5C825.3 35.3 862.7 50.7 881.3 58.3L900 66L900 0L881.3 0C862.7 0 825.3 0 787.8 0C750.3 0 712.7 0 675.2 0C637.7 0 600.3 0 562.8 0C525.3 0 487.7 0 450.2 0C412.7 0 375.3 0 337.8 0C300.3 0 262.7 0 225.2 0C187.7 0 150.3 0 112.8 0C75.3 0 37.7 0 18.8 0L0 0Z" fill="#265ed7" stroke-linecap="round" stroke-linejoin="miter"></path></svg>